<?xml version="1.0" encoding="utf-8"?>
<!-- Generator: Adobe Illustrator 19.1.0, SVG Export Plug-In . SVG Version: 6.00 Build 0)  -->
<svg version="1.1" id="Layer_1" xmlns="http://www.w3.org/2000/svg" xmlns:xlink="http://www.w3.org/1999/xlink" x="0px" y="0px" viewBox="0 0 217 37" style="enable-background:new 0 0 217 37;" xml:space="preserve">
	<style type="text/css">
		.st0 {
			fill: #0C8EFF;
		}

		.st1 {
			fill: #00396B;
		}

	</style>
	<g>
		<g>
			<g>
				<g>
					<g>
						<path class="st0" d="M20.6,30.2c-1.7,0-2.1-1-2.3-1.7c-0.2-0.7-1.4-6.6-1.4-6.6s-3.9,0.8-4.4,0.8c-0.5,0.1-2.3,0.1-2.7-1.6
						c-0.4-1.7,1-2.4,1.5-2.5c0.5-0.1,4.8-0.8,4.8-0.8l-1-4.1c0,0-4.8,0.7-5.4,0.8c-0.6,0.1-2.2-0.2-2.4-1.6
						c-0.2-1.4,0.9-1.9,1.8-2.1c0.9-0.2,4.6-0.6,6.7-0.8c2.1-0.2,2.6,1,2.9,1.6c0.7,1.4,3.7,15.8,3.7,15.8
						C22.5,28.1,22.4,30.1,20.6,30.2z M29.3,19.9c-0.5,0.1-3.4,0.5-3.4,0.5s1,5.4,1.1,6.1c0.1,0.8-0.3,2.3-1.6,2.5
						c-1.2,0.2-1.9-0.8-2.1-1.7c-0.2-0.9-2.5-12.5-3.6-15.8c-0.2-0.6,0-2,1.6-2h5.5c0.8,0,1.9,1.3,1.9,1.9c0,0.6-0.2,1.2-0.7,1.2
						c-0.5,0-4.2,0.2-4.2,0.2l1,3.7c0,0,2.9-0.3,3.6-0.3c0.7,0,1.5,0.6,1.8,1.9C30.4,19.1,29.8,19.8,29.3,19.9z" />
						<path class="st0" d="M18.4,3C27,3,34,10,34,18.6c0,8.6-7,15.5-15.5,15.5c-8.6,0-15.6-7-15.6-15.5C2.9,10,9.8,3,18.4,3
						 M18.4,0.1C8.3,0.1,0,8.4,0,18.6S8.3,37,18.4,37c10.2,0,18.4-8.3,18.4-18.4S28.6,0.1,18.4,0.1L18.4,0.1z" />
					</g>
				</g>
			</g>
			<g>
				<g>
					<path class="st1" d="M46.4,12.3c0-1.1,0.8-2.1,2.1-2.1h6.9c1.2,0,1.8,0.9,1.8,1.9c0,0.9-0.6,1.9-1.8,1.9h-5v3.9h4.2
					c1.3,0,1.9,0.9,1.9,1.8c0,0.9-0.6,1.9-1.9,1.9h-4.2v5.9c0,1.3-0.9,2.1-2,2.1c-1.2,0-2-0.8-2-2.1V12.3z" />
					<path class="st1" d="M62.5,11.5c0,1.2-1,2.2-2.2,2.2c-1.2,0-2.2-1.1-2.2-2.2c0-1.1,1-2.1,2.2-2.1C61.4,9.4,62.5,10.4,62.5,11.5z
					 M58.3,17.1c0-1.3,0.8-2.2,1.9-2.2c1.1,0,1.9,0.9,1.9,2.2v10.3c0,1.3-0.8,2.2-1.9,2.2c-1.1,0-1.9-0.9-1.9-2.2V17.1z" />
					<path class="st1" d="M64.2,17.1c0-1.3,0.8-2.2,1.9-2.2c1,0,1.6,0.5,1.8,1.4c0.8-1.1,1.9-1.6,3.7-1.6c3,0,5.3,1.9,5.3,5.2v7.4
					c0,1.3-0.8,2.2-1.9,2.2c-1.1,0-1.9-0.9-1.9-2.2v-6.8c0-1.8-1.1-2.7-2.5-2.7c-1.6,0-2.5,1.2-2.5,2.7v6.8c0,1.3-0.8,2.2-1.9,2.2
					s-1.9-0.9-1.9-2.2V17.1z" />
					<path class="st1" d="M92.5,27c0,1,0,2.5-1.9,2.5c-1.1,0-1.6-0.6-1.9-1.6c-1,1.2-2.2,1.8-3.7,1.8c-3.6,0-6.4-3.1-6.4-7.5
					c0-4.3,2.9-7.5,6.4-7.5c1.4,0,2.8,0.6,3.7,1.8c0.1-0.9,0.9-1.6,1.9-1.6c1.9,0,1.9,1.5,1.9,2.5V27z M85.6,26.2c2,0,3-2,3-3.9
					c0-1.9-0.9-4-3-4c-2.1,0-3.1,2.1-3.1,4C82.5,24.1,83.5,26.2,85.6,26.2z" />
					<path class="st1" d="M94.7,17.1c0-1.3,0.8-2.2,1.9-2.2c1,0,1.6,0.5,1.8,1.4c0.8-1.1,1.9-1.6,3.7-1.6c3,0,5.3,1.9,5.3,5.2v7.4
					c0,1.3-0.8,2.2-1.9,2.2s-1.9-0.9-1.9-2.2v-6.8c0-1.8-1.1-2.7-2.5-2.7c-1.6,0-2.5,1.2-2.5,2.7v6.8c0,1.3-0.8,2.2-1.9,2.2
					c-1.1,0-1.9-0.9-1.9-2.2V17.1z" />
					<path class="st1" d="M119.3,19.1c-1,0-1.8-0.8-3.1-0.8c-2.2,0-3.3,2-3.3,4c0,1.9,1.2,3.9,3.3,3.9c1,0,2.4-0.8,2.9-0.8
					c0.9,0,1.7,0.8,1.7,1.7c0,2-3.3,2.7-4.7,2.7c-4.2,0-7-3.4-7-7.5c0-3.9,2.9-7.5,7-7.5c1.5,0,4.7,0.6,4.7,2.5
					C120.8,18,120.2,19.1,119.3,19.1z" />
					<path class="st1" d="M126.2,11.5c0,1.2-1,2.2-2.2,2.2c-1.2,0-2.2-1.1-2.2-2.2c0-1.1,1-2.1,2.2-2.1
					C125.2,9.4,126.2,10.4,126.2,11.5z M122.1,17.1c0-1.3,0.8-2.2,1.9-2.2s1.9,0.9,1.9,2.2v10.3c0,1.3-0.8,2.2-1.9,2.2
					s-1.9-0.9-1.9-2.2V17.1z" />
					<path class="st1" d="M141.4,27c0,1,0,2.5-1.9,2.5c-1.1,0-1.6-0.6-1.9-1.6c-1,1.2-2.2,1.8-3.7,1.8c-3.6,0-6.4-3.1-6.4-7.5
					c0-4.3,2.9-7.5,6.4-7.5c1.4,0,2.8,0.6,3.7,1.8c0.1-0.9,0.9-1.6,1.9-1.6c1.9,0,1.9,1.5,1.9,2.5V27z M134.5,26.2c2,0,3-2,3-3.9
					c0-1.9-0.9-4-3-4c-2.1,0-3.1,2.1-3.1,4C131.4,24.1,132.4,26.2,134.5,26.2z" />
					<path class="st1" d="M143.5,10.8c0-1.3,0.8-2.2,1.9-2.2c1.1,0,1.9,0.9,1.9,2.2v16.6c0,1.3-0.8,2.2-1.9,2.2
					c-1.1,0-1.9-0.9-1.9-2.2V10.8z" />
					<path class="st1" d="M149.7,12.3c0-1.1,0.8-2.1,2.1-2.1h6.9c1.2,0,1.8,0.9,1.8,1.9c0,0.9-0.6,1.9-1.8,1.9h-5v3.9h4.2
					c1.3,0,1.9,0.9,1.9,1.8c0,0.9-0.6,1.9-1.9,1.9h-4.2v5.9c0,1.3-0.9,2.1-2,2.1c-1.2,0-2-0.8-2-2.1V12.3z" />
					<path class="st1" d="M174.7,22.3c0,4-2.8,7.5-7,7.5c-4.2,0-7-3.4-7-7.5c0-3.9,2.9-7.5,7-7.5C171.9,14.8,174.7,18.3,174.7,22.3z
					 M164.7,22.3c0,1.9,1,3.9,3.1,3.9c2.1,0,3.1-2,3.1-3.9c0-1.9-0.9-4-3.1-4C165.6,18.3,164.7,20.4,164.7,22.3z" />
					<path class="st1" d="M176.3,16.9c0-1.3,1-1.9,2-1.9c1,0,1.9,0.4,1.9,1.6h0.1c0.7-1.1,1.5-1.6,2.7-1.6c0.9,0,1.9,0.7,1.9,2.1
					c0,1.3-1.2,1.3-2.3,1.9c-1.2,0.5-2.3,1.1-2.3,2.6v6c0,1.3-0.8,2.2-1.9,2.2c-1.1,0-1.9-0.9-1.9-2.2V16.9z" />
					<path class="st1" d="M194.7,19.1c-1,0-1.8-0.8-3.1-0.8c-2.2,0-3.3,2-3.3,4c0,1.9,1.2,3.9,3.3,3.9c1,0,2.4-0.8,2.9-0.8
					c0.9,0,1.7,0.8,1.7,1.7c0,2-3.3,2.7-4.7,2.7c-4.2,0-7-3.4-7-7.5c0-3.9,2.9-7.5,7-7.5c1.5,0,4.7,0.6,4.7,2.5
					C196.1,18,195.6,19.1,194.7,19.1z" />
					<path class="st1" d="M200.6,23.5c0.3,1.9,1.9,2.8,3.7,2.8c2,0,3.4-1.6,4.4-1.6c0.8,0,1.6,0.8,1.6,1.7c0,1.7-3.4,3.3-6.3,3.3
					c-4.4,0-7.3-3.2-7.3-7.5c0-3.9,2.9-7.5,7-7.5c4.2,0,7,3.8,7,7.1c0,1.2-0.5,1.7-1.7,1.7H200.6z M206.7,20.9c-0.2-1.7-1.3-3-3.1-3
					c-1.7,0-2.9,1.3-3.1,3H206.7z" />
				</g>
			</g>
		</g>
	</g>
</svg>
