<svg version="1.1" 
	xmlns="http://www.w3.org/2000/svg" 
	xmlns:xlink="http://www.w3.org/1999/xlink" x="0px" y="0px" viewBox="0 0 310.5 36.1" enable-background="new 0 0 310.5 36.1" xml:space="preserve">
	<g id="ff_disk">
		<path fill="#E81A50" d="M35.4,13.2c-0.5-1.6-1.2-3.2-2-4.6c-0.6-1-1.4-2-2.2-2.8c-0.1,0-0.2-0.1-0.3-0.1C29.4,5,27.7,4.9,26.1,5 c-0.8,0-1.5,0.1-2.3,0.3c-1.1,0.3-2.2,0.8-3,1.5c-2.2,1.8-3.7,5.3-4.2,9.1l-0.1,0.6h-4.6c-0.2,0-0.3,0.1-0.4,0.3L11,19.6h5.4 c-0.1,1.1-0.3,2.1-0.6,3.2c-0.3,0.9-0.7,1.8-1.2,2.7c-0.3,0.6-0.8,1.1-1.3,1.5c-0.8,0.7-2.4,1.3-4,1.3c-1,0-2.5-0.3-3.5-1.6 C4,24.1,3.1,21.1,3.1,18l0,0C3.2,9.7,9.9,3,18.2,3.1c1.6,0,3.3,0.3,4.8,0.8c1-0.3,2.3-0.5,3.7-0.5c0.9,0,1.7,0.1,2.4,0.2 c-3-2.2-6.7-3.5-10.7-3.6C8.4-0.2,0.1,7.8,0,17.8v0.1c0,1.7,0.2,3.4,0.7,5s1.2,3.2,2,4.6c0.6,1,1.4,2,2.2,2.8 c0.1,0,0.2,0.1,0.3,0.1c1.5,0.5,3.1,0.7,4.7,0.6c0.8,0,1.5-0.1,2.3-0.3c1.1-0.3,2.2-0.8,3-1.5c2.2-1.8,3.7-5.3,4.2-9.1l0.1-0.6l0,0 h4.6c0.2,0,0.3-0.1,0.4-0.3l0.5-2.8h-5.4c0.1-1.1,0.3-2.1,0.6-3.2c0.3-0.9,0.7-1.8,1.2-2.7c0.3-0.6,0.8-1.1,1.3-1.5 c0.8-0.7,2.4-1.3,4-1.3c1,0,2.5,0.3,3.5,1.6C32.1,12,33,15,33,18.1l0,0c-0.1,8.2-6.8,14.9-15.1,14.8c-1.7,0-3.3-0.3-4.8-0.8 c-1,0.3-2.3,0.5-3.7,0.5c-0.9,0-1.7-0.1-2.4-0.2c2.9,2.2,6.7,3.6,10.6,3.6H18c9.8,0,17.8-8,18-17.8C36.1,16.6,35.9,14.9,35.4,13.2z "></path>
	</g>
	<g id="ff_text">
		<path fill="#231F20" d="M69.2,9.5v17.2h-3V9.5H69.2z M88.3,9.5h3v17.2h-2.5l-9.5-12.2v12.2h-3V9.5h2.8l9.2,11.9V9.5z M114.6,26.7 h-3.2l-1.7-4.2h-8.1l-1.8,4.2h-3.1l7.6-17.3h2.8L114.6,26.7z M105.6,12.9l-2.9,6.9h5.9L105.6,12.9z M132,9.5h3v17.2h-2.5L123,14.4 v12.2h-3V9.5h2.8l9.2,11.9V9.5z M149.9,26.9c-5,0-8.7-3.9-8.7-8.9c0-4.9,3.7-8.9,8.9-8.9c3.2,0,5.1,1.1,6.7,2.7l-1.9,2.2 c-1.4-1.3-2.9-2.1-4.8-2.1c-3.3,0-5.7,2.7-5.7,6.1s2.4,6.1,5.7,6.1c2.1,0,3.5-0.9,4.9-2.2l1.9,2C155,25.8,153.1,26.9,149.9,26.9z M165.7,9.5v17.2h-3V9.5H165.7z M189.2,26.7H186l-1.7-4.2h-8.1l-1.8,4.2h-3.1l7.6-17.3h2.8L189.2,26.7z M180.2,12.9l-2.9,6.9h5.9 L180.2,12.9z M194.6,9.5h3v14.4h9v2.8h-12.1V9.5H194.6z M238.9,26.9c-5.3,0-9-4-9-8.9s3.7-8.9,9-8.9s9,4,9,8.9 S244.2,26.9,238.9,26.9z M238.9,11.9c-3.4,0-5.8,2.7-5.8,6.1s2.4,6.1,5.8,6.1s5.8-2.7,5.8-6.1S242.3,11.9,238.9,11.9z M265.1,26.7 l-4.2-6H257v6h-3V9.5h7.7c4,0,6.4,2.1,6.4,5.5c0,2.9-1.7,4.6-4.1,5.2l4.6,6.5H265.1z M261.4,12.2H257V18h4.4c2.2,0,3.5-1.1,3.5-2.9 C265,13.2,263.7,12.2,261.4,12.2z M282.2,26.9c-5,0-8.7-3.9-8.7-8.9c0-4.9,3.7-8.9,8.9-8.9c3.2,0,5.1,1.1,6.7,2.7l-1.9,2.2 c-1.4-1.3-2.9-2.1-4.8-2.1c-3.3,0-5.7,2.7-5.7,6.1s2.4,6.1,5.7,6.1c2.1,0,3.5-0.9,4.9-2.2l1.9,2C287.4,25.8,285.5,26.9,282.2,26.9z M307.6,12.2h-9.7v4.5h8.6v2.7h-8.6V24h9.9v2.7h-12.9V9.5h12.8L307.6,12.2L307.6,12.2z M47.4,9.5v5.9h3v-3.1h9.8V9.5H47.4z M47.4,16.9v9.8h3v-7h8.7v-2.8L47.4,16.9z M212.2,9.5v5.9h3v-3.1h9.8V9.5H212.2z M212.2,16.9v9.8h3v-7h8.7v-2.8L212.2,16.9z"></path>
	</g>
</svg>